<?xml version="1.0" encoding="UTF-8"?> <svg xmlns="http://www.w3.org/2000/svg" xmlns:xlink="http://www.w3.org/1999/xlink" id="Layer_1" version="1.1" viewBox="0 0 934 902"><!-- Generator: Adobe Illustrator 29.3.1, SVG Export Plug-In . SVG Version: 2.1.0 Build 151) --><defs><linearGradient id="linear-gradient" x1="699" y1="-12655.2" x2="643.6" y2="-13011.2" gradientTransform="translate(0 -12468) scale(1 -1)" gradientUnits="userSpaceOnUse"><stop offset="0" stop-color="#d095ec"></stop><stop offset=".1" stop-color="#c47bf0"></stop><stop offset=".4" stop-color="#c37aef"></stop><stop offset=".8" stop-color="#a22ef9"></stop><stop offset="1" stop-color="#920ef9"></stop></linearGradient></defs><path d="M881.5,295.1v86.9H167.2v-86.9c0-11.8,9.6-21.4,21.4-21.4h671.5c11.8,0,21.4,9.6,21.4,21.4h0Z" fill="#fff"></path><path d="M881.5,526.5v86.9c0,11.8-9.6,21.4-21.4,21.4H188.6c-11.8,0-21.4-9.6-21.4-21.4v-86.9h714.3Z" fill="#fff"></path><path d="M746.6,273.8l-97.3,539.4c-3.8,21.3-22.4,36.8-44,36.8h-70.8l103.9-576.2" fill="#1f1d1c"></path><path d="M734,219.7h-62.8c-13.9,0-24.5-12.6-22-26.3l11.4-63.5c1.9-10.7,11.2-18.4,22-18.4h62.8c13.9,0,24.5,12.6,22,26.3l-11.4,63.5c-1.9,10.7-11.2,18.4-22,18.4Z" fill="#d39aeb"></path><path d="M365.7,850h-54.7c-27.9,0-49-25.2-44-52.7L396.7,76.3c1.9-10.6,11.2-18.4,22-18.4h89.5l-142.5,792.1Z" fill="#fff"></path><path d="M679.8,273.8l66.9.2v-.2s-66.9,0-66.9,0Z" fill="#80458b"></path><path d="M679.8,273.8l-209.9-.7-108.1-.4-19.5,108.2-26.3,145.6-19.5,108.2-29.3,162.6c-5,27.4,16.1,52.7,44,52.7h54.7l38.8-215.3h168.8l-38.8,215.3h70.8c21.6,0,40.2-15.5,44-36.8l32.2-178.5,19.5-108.2,26-144.3,19.5-108.2-66.9-.2h0ZM593,526.5h-168.8l26.2-144.6h168.7l-26.1,144.6h0Z" fill="#930bf9"></path><path d="M746.8,273.8l-97.3,539.4c-3.8,21.3-22.4,36.8-44,36.8h-70.8l103.9-576.2" fill="url(#linear-gradient)"></path></svg> 