<?xml version="1.0" encoding="UTF-8"?> <svg xmlns="http://www.w3.org/2000/svg" xmlns:xlink="http://www.w3.org/1999/xlink" id="Layer_1" viewBox="0 0 1080 524"><defs><style>.cls-1{fill:url(#radial-gradient);}.cls-1,.cls-2,.cls-3,.cls-4{stroke-width:0px;}.cls-2{fill:#311b5c;}.cls-3{fill:#572676;}.cls-4{fill:#fff;}</style><radialGradient id="radial-gradient" cx="540" cy="180.04" fx="540" fy="180.04" r="112.29" gradientUnits="userSpaceOnUse"><stop offset=".03" stop-color="#06c3d2"></stop><stop offset="1" stop-color="#7c469e"></stop></radialGradient></defs><path class="cls-4" d="m0,522.74v-108.54h36.39c33.53,0,53.33,20.24,53.33,54-.06,34.13-20.14,54.54-55.38,54.54H0Zm33.7-8.9c30.21,0,45.66-17.28,45.66-45.63-.06-28.09-15.16-45.1-43.6-45.1H10.7v90.73h23Z"></path><path class="cls-4" d="m111.47,420.56c0-3.71,3.43-6.78,7.61-6.78s7.67,3.07,7.67,6.78-3.49,6.78-7.67,6.78-7.61-3.07-7.61-6.78Zm2.4,20.78h10.24v81.41h-10.24v-81.41Z"></path><path class="cls-4" d="m146.92,482.4c0-24.96,15.91-42.19,38.68-42.19s38.68,17.22,38.68,42.19-15.91,42.03-38.68,42.03-38.68-17.22-38.68-42.03Zm67.11,0c0-18.23-10.18-33.6-28.44-33.6s-28.44,15.37-28.44,33.6,10.19,33.39,28.44,33.39,28.44-15.16,28.44-33.39Z"></path><path class="cls-4" d="m257.13,522.74h-10.19v-81.41h9.9v12.77h.92c4.12-8.32,12.99-13.83,25.86-13.83,17.74,0,29.81,10.44,29.81,29.73v52.73h-10.19v-52.15c0-13.3-8.7-21.68-22.2-21.68s-23.91,8.74-23.91,22.95v50.88Z"></path><path class="cls-4" d="m336.11,482.51c0-24.64,15.73-42.29,38.51-42.29,19.05,0,37.19,12.77,37.19,39.96v4.66h-65.45c.46,18.81,11.85,30.95,29.81,30.95,12.47,0,20.43-6.04,23.8-13.36l9.67,2.91c-4,10.23-15.85,19.08-33.47,19.08-24.6,0-40.05-17.22-40.05-41.92Zm65.28-5.99c0-15.69-11.04-27.72-26.78-27.72s-27.12,12.56-28.21,27.72h54.98Z"></path><path class="cls-4" d="m482.23,414.2h37.82c24.94,0,37.76,14.52,37.76,33.49s-12.82,33.55-37.59,33.55h-27.29v41.5h-10.7v-108.54Zm37.7,58.14c18.36,0,27.35-10.44,27.35-24.64s-8.98-24.59-27.52-24.59h-26.83v49.24h27.01Z"></path><path class="cls-4" d="m581.17,441.33h9.9v12.51h.74c3.55-8.21,12.99-13.73,24.03-13.73,1.66,0,4,.11,5.38.16v9.59c-.92-.11-3.43-.53-6.12-.53-13.73,0-23.74,8.74-23.74,20.83v52.57h-10.18v-81.41Z"></path><path class="cls-4" d="m631.67,482.4c0-24.96,15.91-42.19,38.68-42.19s38.68,17.22,38.68,42.19-15.91,42.03-38.68,42.03-38.68-17.22-38.68-42.03Zm67.11,0c0-18.23-10.18-33.6-28.44-33.6s-28.44,15.37-28.44,33.6,10.19,33.39,28.44,33.39,28.44-15.16,28.44-33.39Z"></path><path class="cls-4" d="m766.31,449.55h-18.6v51.94c0,10.23,6.35,13.25,13.27,13.25,2.69,0,4.52-.37,5.95-.74l2.17,8.53c-1.94.69-4.81,1.43-9.04,1.43-11.27,0-22.6-6.94-22.6-20.25v-54.16h-13.1v-8.21h13.1v-19.5h10.24v19.5h18.6v8.21Z"></path><path class="cls-4" d="m784.31,482.4c0-24.96,15.91-42.19,38.68-42.19s38.68,17.22,38.68,42.19-15.91,42.03-38.68,42.03-38.68-17.22-38.68-42.03Zm67.11,0c0-18.23-10.18-33.6-28.44-33.6s-28.44,15.37-28.44,33.6,10.19,33.39,28.44,33.39,28.44-15.16,28.44-33.39Z"></path><path class="cls-4" d="m879.82,482.4c0-24.48,15.68-42.19,38.68-42.19,17.62,0,31.24,10.18,33.64,25.28h-10.3c-2.17-9.22-10.64-16.7-23.17-16.7-16.88,0-28.61,13.57-28.61,33.28s11.39,33.71,28.61,33.71c11.67,0,20.88-6.41,23.23-16.8h10.3c-2.35,14.73-15.22,25.44-33.53,25.44-23.63,0-38.85-17.75-38.85-42.03Z"></path><path class="cls-4" d="m969.78,482.4c0-24.96,15.91-42.19,38.68-42.19s38.68,17.22,38.68,42.19-15.91,42.03-38.68,42.03-38.68-17.22-38.68-42.03Zm67.11,0c0-18.23-10.19-33.6-28.44-33.6s-28.44,15.37-28.44,33.6,10.18,33.39,28.44,33.39,28.44-15.16,28.44-33.39Z"></path><path class="cls-4" d="m1080,522.74h-10.19v-108.54h10.19v108.54Z"></path><circle class="cls-2" cx="540" cy="180.04" r="180.03"></circle><circle class="cls-3" cx="540" cy="180.04" r="150.48"></circle><circle class="cls-1" cx="540" cy="180.04" r="112.29"></circle></svg> 