<?xml version="1.0" encoding="UTF-8"?> <!-- Generator: Adobe Illustrator 28.2.0, SVG Export Plug-In . SVG Version: 6.00 Build 0) --> <svg xmlns="http://www.w3.org/2000/svg" xmlns:xlink="http://www.w3.org/1999/xlink" version="1.1" id="Layer_1" x="0px" y="0px" viewBox="0 0 1563.9 720" style="enable-background:new 0 0 1563.9 720;" xml:space="preserve"> <style type="text/css"> .st0{fill-rule:evenodd;clip-rule:evenodd;fill:#FFFFFF;} .st1{fill:#FFFFFF;} </style> <rect x="-16.8" y="-22.9" width="1622.6" height="765.7"></rect> <g> <path class="st0" d="M414.7,269c-24.3-24.3-56.6-37.7-91-37.7s-66.7,13.4-91,37.7S195,325.6,195,360s13.4,66.7,37.7,91 c24.3,24.3,56.6,37.7,91,37.7s66.7-13.4,91-37.7c24.3-24.3,37.7-56.6,37.7-91S439,293.3,414.7,269z M298.9,456.1 c0,7.1,3,13.7,8.1,18.3c-11.8-6.1-19.8-18.5-19.8-32.4c0-20.1,16.3-36.4,36.4-36.4s36.4,16.3,36.4,36.4c0,13.8-7.9,26.2-19.8,32.4 c5-4.6,8.1-11.2,8.1-18.3c0-13.6-11.1-24.8-24.8-24.8C310,431.4,298.9,442.5,298.9,456.1z M368.4,439.7c0-24.6-20-44.7-44.7-44.7 c-24.6,0-44.7,20-44.7,44.7c0,11.6,4.5,22.7,12.5,30.9c-16.7-10.8-27.1-29.5-27.1-49.8c0-32.7,26.6-59.3,59.3-59.3 c32.7,0,59.3,26.6,59.3,59.3c0,20.3-10.4,39-27.1,49.8C363.8,462.4,368.4,451.3,368.4,439.7L368.4,439.7z M391.9,417 c0-37.6-30.6-68.2-68.2-68.2s-68.2,30.6-68.2,68.2c0,18.1,7.2,35.3,19.7,47.9c-21.8-15.5-35-40.6-35-68c0-46.1,37.5-83.5,83.5-83.5 s83.5,37.5,83.5,83.5c0,27.4-13.2,52.5-35,68C384.7,452.3,391.9,435.1,391.9,417L391.9,417z M392.9,457.1 c16.7-17.6,26.1-40.8,26.1-65.5c0-52.5-42.7-95.2-95.2-95.2c-52.5,0-95.2,42.7-95.2,95.2c0,24.7,9.4,47.9,26.1,65.5 c-27.6-21.3-44.3-54.7-44.3-89.9c0-62.6,50.9-113.5,113.5-113.5s113.5,50.9,113.5,113.5C437.2,402.4,420.5,435.8,392.9,457.1 L392.9,457.1z"></path> <g> <path class="st1" d="M557.6,313.4h22.1l24.5,39.4l24.5-39.4h22.1v93.1h-20.3v-60.8l-26.2,39.8h-0.5l-25.9-39.4v60.4h-20.1 L557.6,313.4L557.6,313.4z"></path> <path class="st1" d="M710.3,313.4h70.2v18.2h-49.9v18.9h43.9v18.2h-43.9v19.5h50.5v18.2h-70.9L710.3,313.4L710.3,313.4z"></path> <path class="st1" d="M830.3,393l12.1-14.5c8.5,6.9,17.2,11.3,27.8,11.3c8.5,0,13.4-3.3,13.4-8.8v-0.3c0-5.2-3.2-8-18.8-11.8 c-18.9-4.7-30.9-10.1-30.9-28.5v-0.3c0-16.9,13.4-28.1,32.6-28.1c13.7,0,25,4.3,34.6,11.8l-10.6,15.4c-8.4-5.7-16.2-9.2-24.2-9.2 s-12,3.5-12,8.1v0.3c0,6.2,4,8,20.1,12.2c18.9,5,29.5,11.7,29.5,27.9v0.3c0,18.5-14.1,28.9-34.2,28.9 C855.6,407.9,841.5,403.1,830.3,393L830.3,393z"></path> <path class="st1" d="M951.3,393l12.1-14.5c8.5,6.9,17.2,11.3,27.8,11.3c8.5,0,13.4-3.3,13.4-8.8v-0.3c0-5.2-3.2-8-18.8-11.8 c-18.9-4.7-30.9-10.1-30.9-28.5v-0.3c0-16.9,13.4-28.1,32.6-28.1c13.7,0,25,4.3,34.6,11.8l-10.6,15.4c-8.4-5.7-16.2-9.2-24.2-9.2 s-12,3.5-12,8.1v0.3c0,6.2,4,8,20.1,12.2c18.9,5,29.5,11.7,29.5,27.9v0.3c0,18.5-14.1,28.9-34.2,28.9 C976.6,407.9,962.5,403.1,951.3,393L951.3,393z"></path> <path class="st1" d="M1081,313.4h20.5v93.1H1081V313.4z"></path> <path class="st1" d="M1162,313.4h70.2v18.2h-49.9v18.9h43.9v18.2h-43.9v19.5h50.5v18.2H1162L1162,313.4L1162,313.4z"></path> <path class="st1" d="M1288.4,313.4h42.6c11.8,0,20.9,3.2,27.1,9.4c5.3,5.3,8,12.4,8,21.3v0.3c0,15-8.1,24.5-19.9,28.9l22.8,33.2 h-23.9l-19.9-29.8h-16.1v29.8h-20.5L1288.4,313.4L1288.4,313.4z M1329.6,358.7c10.1,0,15.7-5.2,15.7-13.2v-0.3 c0-8.9-6-13.3-16.1-13.3h-20.3v26.7H1329.6L1329.6,358.7z"></path> </g> </g> </svg> 