<?xml version="1.0" encoding="UTF-8"?> <svg xmlns="http://www.w3.org/2000/svg" id="Layer_1" version="1.1" viewBox="0 0 1506.7 642.7"><!-- Generator: Adobe Illustrator 29.6.1, SVG Export Plug-In . SVG Version: 2.1.1 Build 9) --><path d="M1464,148.5c0,5.8-5,10.4-10.8,10.4-40.9.3-67.3,21.9-67.3,66.7h68.1c5.5,0,10,4.5,10,10v71.4c0,5.5-4.5,10-10,10h-68.1v267.1c0,5.5-4.5,10-10,10h-75.1c-5.5,0-10-4.5-10-10v-267.1h-43c-5.5,0-10-4.5-10-10v-71.4c0-5.5,4.5-10,10-10h43c0-44.6,9.6-90.7,43.5-122.3,27.4-25.5,67.5-37.5,120.3-35.8,5.3.2,9.4,4.6,9.4,9.9v71.2Z" fill="#fff"></path><path d="M1108.8,594.3c-5.5,0-10-4.5-10-10V66.3c0-5.5,4.5-10,10-10h75.1c5.5,0,10,4.5,10,10v517.9c0,5.5-4.5,10-10,10h-75.1Z" fill="#fff"></path><path d="M780.3,438.9c12.8,46.2,47.4,69.3,103.9,69.3s58.5-10,76.9-30.1c3.4-3.7,8.9-4.9,13.3-2.4l59.6,34.4c5.1,2.9,6.6,9.6,3,14.2-36.1,46.7-87.5,70.1-154.2,70.1s-109.8-18.4-146.7-55.3c-36.8-36.8-55.3-83.3-55.3-139.3s18.2-101.7,54.5-138.5c36.3-37.3,83-56,140-56s98.5,18.7,133.4,56c35.4,37.3,53.1,83.5,53.1,138.5s-1.2,25.3-3.7,39h-277.8ZM778.8,365.2h187.9c-5.4-25.1-16.7-43.7-33.9-56-16.7-12.3-35.9-18.4-57.5-18.4s-46.7,6.6-63.4,19.9c-16.7,12.8-27.8,30.9-33.2,54.5Z" fill="#fff"></path><path d="M293.3,380v-151.7c0-5.5,4.5-10,10-10h95.6c5.5,0,10,4.5,10,10v151.7c0,31.1-6.7,60.7-18.6,87.4-2.3,5.2,1.4,11.3,7.1,11.3h40.2c54.7.1,99.1-44.1,99.1-98.7v-151.7c0-5.5,4.5-10,10-10h95.6c5.5,0,10,4.5,10,10v151.7c0,118.2-96.1,214.1-214.7,214.1h-46.2c-5.5,0-10-4.5-10-10v-84c0-4.1-5.6-5.6-7.9-2.2-38.4,58-98.3,96.2-173.2,96.2h-24.2c-5.5,0-10-4.5-10-10l.2-74.9c0-13.2-10.8-23.6-23.7-26.4-51.9-11.1-97.8-57.6-97.8-112.5v-36.5c0-5.5,4.5-10,10-10h101.6c5.5,0,10,4.5,10,10v36.5s0,0,0,0c0,0,0,0,0,0,0,0,0,0,0,0,0,0,0,0,0,0s0,0,0,0c0,0,0,0,0,0,0,0,0,0,0,0h0s0,0,0,0h0s0,98.1,0,98.1c0,5.7,4.7,10.4,10.4,10.4h23.5c54.7,0,93.1-44.2,93.1-98.8Z" fill="#fff"></path></svg> 