<?xml version="1.0" encoding="UTF-8"?> <svg xmlns="http://www.w3.org/2000/svg" width="365" height="94" viewBox="0 0 365 94" fill="none"><mask id="mask0_1348_101" style="mask-type:luminance" maskUnits="userSpaceOnUse" x="0" y="0" width="365" height="94"><path d="M364.095 0.160156H0V93.2925H364.095V0.160156Z" fill="white"></path></mask><g mask="url(#mask0_1348_101)"><path d="M46.5661 93.2923C72.2839 93.2923 93.1319 72.4441 93.1319 46.7264C93.1319 21.0086 72.2839 0.160156 46.5661 0.160156C20.8483 0.160156 0 21.0086 0 46.7264C0 72.4441 20.8483 93.2923 46.5661 93.2923Z" fill="#72F395"></path><path d="M352.356 59.4598C349.498 59.4598 347.159 58.8386 345.337 57.5964C343.515 56.3127 342.169 54.677 341.299 52.6893C340.43 50.6602 339.995 48.569 339.995 46.4157C339.953 43.9726 340.409 41.7571 341.361 39.7695C342.355 37.7818 343.763 36.2082 345.585 35.0488C347.449 33.8893 349.664 33.3096 352.231 33.3096C354.468 33.3096 356.455 33.8065 358.194 34.8003C359.934 35.7527 361.321 37.1193 362.356 38.8999C363.391 40.6391 363.95 42.7096 364.033 45.1113C364.075 45.2356 364.095 45.484 364.095 45.8567C364.095 46.188 364.095 46.4779 364.095 46.7263H344.902C344.902 49.3765 345.544 51.447 346.827 52.9378C348.153 54.3871 349.975 55.1118 352.294 55.1118C354.033 55.1118 355.503 54.677 356.704 53.8074C357.946 52.8964 358.712 51.6955 359.002 50.2047H364.033C363.785 51.9439 363.164 53.5175 362.17 54.9254C361.176 56.3334 359.851 57.4514 358.194 58.2796C356.538 59.0664 354.592 59.4598 352.356 59.4598ZM345.088 44.1796H358.878C358.836 43.7241 358.712 43.1237 358.505 42.3783C358.339 41.6329 358.008 40.9082 357.511 40.2043C357.014 39.4589 356.331 38.8378 355.461 38.3408C354.592 37.8439 353.474 37.5955 352.107 37.5955C350.865 37.5955 349.809 37.8025 348.939 38.2166C348.07 38.6307 347.366 39.1897 346.827 39.8937C346.289 40.5563 345.875 41.2809 345.585 42.0677C345.337 42.8131 345.171 43.5171 345.088 44.1796Z" fill="white"></path><path d="M327.203 59.4595C326.043 59.4595 324.904 59.2939 323.786 58.9626C322.71 58.6727 321.695 58.2379 320.743 57.6582C319.832 57.0785 319.003 56.4159 318.258 55.6705C317.554 54.9252 316.995 54.1177 316.581 53.2481C316.208 52.3371 316.022 51.3846 316.022 50.3908H320.867C320.867 50.4322 320.888 50.7221 320.929 51.2604C321.012 51.7987 321.24 52.4199 321.612 53.1238C321.985 53.7864 322.585 54.3661 323.414 54.8631C324.283 55.36 325.505 55.6084 327.078 55.6084C328.279 55.6084 329.294 55.4635 330.122 55.1736C330.992 54.8838 331.654 54.4904 332.11 53.9934C332.565 53.4551 332.772 52.8133 332.731 52.0679C332.731 51.0326 332.337 50.2252 331.551 49.6454C330.764 49.0657 329.749 48.6102 328.507 48.2789C327.265 47.9062 325.96 47.5542 324.594 47.223C323.227 46.8917 321.923 46.4569 320.681 45.9186C319.438 45.3388 318.424 44.5727 317.637 43.6203C316.892 42.6265 316.54 41.3014 316.581 39.645C316.581 37.4089 317.513 35.6904 319.376 34.4895C321.281 33.2472 323.683 32.626 326.581 32.626C327.989 32.626 329.356 32.7917 330.681 33.123C332.006 33.4542 333.186 33.9719 334.222 34.6758C335.298 35.3798 336.147 36.3115 336.768 37.471C337.431 38.6304 337.741 40.0591 337.7 41.7569H332.917C332.959 40.6802 332.772 39.8106 332.358 39.1481C331.985 38.4855 331.468 37.9886 330.805 37.6573C330.143 37.2846 329.439 37.0362 328.693 36.9119C327.989 36.7463 327.306 36.6635 326.644 36.6635C324.987 36.6635 323.683 36.9741 322.73 37.5952C321.778 38.1749 321.302 38.9617 321.302 39.9556C321.302 40.9908 321.695 41.7983 322.482 42.378C323.269 42.9578 324.283 43.4133 325.525 43.7445C326.768 44.0758 328.093 44.4071 329.501 44.7384C330.909 45.0697 332.234 45.5252 333.476 46.1049C334.718 46.6432 335.733 47.4093 336.52 48.4031C337.307 49.397 337.7 50.7221 337.7 52.3785C337.7 53.9934 337.244 55.3186 336.333 56.3538C335.464 57.389 334.242 58.1758 332.669 58.7142C331.095 59.2111 329.273 59.4595 327.203 59.4595Z" fill="white"></path><path d="M297.877 58.8385V33.4336H302.66L303.095 40.7632L303.033 46.2292V58.8385H297.877ZM303.033 47.4094L302.847 41.8191C302.888 40.9081 303.095 39.9764 303.468 39.0239C303.84 38.0301 304.399 37.1191 305.145 36.2909C305.932 35.4213 306.925 34.738 308.126 34.2411C309.369 33.7028 310.859 33.4336 312.599 33.4336H313.654V39.1482H312.536C310.673 39.1482 309.12 39.3345 307.878 39.7072C306.636 40.0385 305.662 40.5561 304.958 41.2601C304.254 41.964 303.758 42.8336 303.468 43.8689C303.178 44.9041 303.033 46.0843 303.033 47.4094Z" fill="white"></path><path d="M283.174 59.4598C280.316 59.4598 277.977 58.8386 276.155 57.5964C274.333 56.3127 272.987 54.677 272.117 52.6893C271.248 50.6602 270.813 48.569 270.813 46.4157C270.771 43.9726 271.227 41.7571 272.179 39.7695C273.173 37.7818 274.581 36.2082 276.403 35.0488C278.267 33.8893 280.482 33.3096 283.049 33.3096C285.285 33.3096 287.273 33.8065 289.012 34.8003C290.752 35.7527 292.139 37.1193 293.174 38.8999C294.209 40.6391 294.768 42.7096 294.851 45.1113C294.893 45.2356 294.913 45.484 294.913 45.8567C294.913 46.188 294.913 46.4779 294.913 46.7263H275.72C275.72 49.3765 276.362 51.447 277.645 52.9378C278.97 54.3871 280.792 55.1118 283.111 55.1118C284.851 55.1118 286.321 54.677 287.522 53.8074C288.764 52.8964 289.53 51.6955 289.82 50.2047H294.851C294.603 51.9439 293.981 53.5175 292.988 54.9254C291.994 56.3334 290.669 57.4514 289.012 58.2796C287.356 59.0664 285.41 59.4598 283.174 59.4598ZM275.906 44.1796H289.696C289.654 43.7241 289.53 43.1237 289.323 42.3783C289.157 41.6329 288.826 40.9082 288.329 40.2043C287.832 39.4589 287.149 38.8378 286.279 38.3408C285.41 37.8439 284.292 37.5955 282.925 37.5955C281.683 37.5955 280.627 37.8025 279.757 38.2166C278.888 38.6307 278.184 39.1897 277.645 39.8937C277.107 40.5563 276.693 41.2809 276.403 42.0677C276.155 42.8131 275.989 43.5171 275.906 44.1796Z" fill="white"></path><path d="M268.664 23.8682H274.317L262.391 58.8387H253.757L241.831 23.8682H247.421L258.043 56.5404L268.664 23.8682Z" fill="white"></path><path d="M225.707 58.8387V33.3096H231.608L232.105 40.7634L232.043 46.2295V58.8387H225.707ZM232.043 47.8444L231.857 42.192C231.857 41.3224 232.022 40.3907 232.354 39.3969C232.685 38.3616 233.223 37.3885 233.969 36.4775C234.755 35.5665 235.77 34.8211 237.012 34.2413C238.254 33.6202 239.787 33.3096 241.609 33.3096H242.54V40.3907H241.609C239.828 40.3907 238.317 40.5356 237.074 40.8255C235.832 41.0739 234.838 41.488 234.093 42.0678C233.389 42.6475 232.871 43.4136 232.54 44.366C232.209 45.3184 232.043 46.4779 232.043 47.8444Z" fill="white"></path><path d="M211.073 59.4599C208.133 59.4599 205.731 58.8388 203.868 57.5965C202.046 56.3128 200.679 54.6771 199.768 52.6894C198.899 50.7018 198.443 48.6313 198.402 46.478C198.36 43.9106 198.836 41.633 199.83 39.6454C200.866 37.6163 202.315 36.0427 204.178 34.9247C206.083 33.7652 208.319 33.1855 210.887 33.1855C213.164 33.1855 215.214 33.6824 217.036 34.6762C218.858 35.67 220.287 37.0573 221.322 38.8379C222.399 40.6185 222.958 42.7511 222.999 45.2357C222.999 45.3185 222.999 45.567 222.999 45.9811C222.999 46.3537 222.999 46.6436 222.999 46.8507H204.427C204.427 49.2111 205.007 51.033 206.166 52.3167C207.367 53.559 208.961 54.1802 210.949 54.1802C212.522 54.1802 213.827 53.7868 214.862 53C215.939 52.2132 216.581 51.178 216.788 49.8943H222.937C222.771 51.6749 222.192 53.2899 221.198 54.7392C220.204 56.1886 218.858 57.348 217.16 58.2176C215.462 59.0458 213.433 59.4599 211.073 59.4599ZM204.613 43.9934H216.663C216.622 43.7035 216.539 43.248 216.415 42.6269C216.291 42.0057 216.022 41.3639 215.607 40.7013C215.193 40.0388 214.593 39.4797 213.806 39.0242C213.019 38.5687 212.005 38.341 210.762 38.341C209.52 38.341 208.506 38.548 207.719 38.9621C206.932 39.3762 206.332 39.8938 205.918 40.515C205.503 41.1361 205.193 41.7573 204.986 42.3784C204.779 42.9996 204.655 43.5379 204.613 43.9934Z" fill="white"></path><path d="M186.856 59.4599C185.283 59.4599 183.957 59.2321 182.881 58.7766C181.846 58.2797 180.997 57.6999 180.334 57.0374C179.713 56.3748 179.237 55.7744 178.905 55.2361C178.616 54.6977 178.45 54.3872 178.409 54.3043H178.284V70.2057H171.762V33.3096H177.29L178.346 38.8999H178.471C178.512 38.7757 178.657 38.4237 178.905 37.844C179.154 37.2643 179.589 36.6224 180.21 35.9184C180.831 35.2145 181.68 34.614 182.757 34.1171C183.833 33.5788 185.179 33.3096 186.794 33.3096C189.361 33.3096 191.411 33.8687 192.943 34.9867C194.517 36.1048 195.656 37.6576 196.36 39.6453C197.105 41.633 197.478 43.9312 197.478 46.54C197.478 49.1902 197.105 51.4885 196.36 53.4347C195.614 55.3396 194.455 56.8303 192.881 57.907C191.349 58.9422 189.341 59.4599 186.856 59.4599ZM184.931 54.118C186.67 54.118 187.995 53.766 188.906 53.0621C189.858 52.3167 190.5 51.3643 190.831 50.2048C191.204 49.0039 191.39 47.7616 191.39 46.4779C191.39 45.1942 191.204 43.9726 190.831 42.8132C190.459 41.6537 189.775 40.722 188.782 40.018C187.829 39.314 186.504 38.9621 184.806 38.9621C183.274 38.9621 182.032 39.2933 181.079 39.9559C180.127 40.577 179.423 41.4673 178.968 42.6268C178.553 43.7449 178.346 45.0286 178.346 46.4779C178.346 47.9687 178.574 49.2938 179.03 50.4532C179.485 51.5713 180.189 52.4616 181.142 53.1242C182.135 53.7867 183.398 54.118 184.931 54.118Z" fill="white"></path><path d="M153.71 59.4599C151.93 59.4599 150.46 59.17 149.3 58.5903C148.182 58.0105 147.292 57.2444 146.629 56.292C146.008 55.3396 145.553 54.2836 145.263 53.1242C144.973 51.9647 144.786 50.8052 144.704 49.6458C144.621 48.4449 144.579 47.3475 144.579 46.3537V33.3096H150.729V46.3537C150.729 47.6374 150.853 48.859 151.101 50.0184C151.35 51.1365 151.867 52.0682 152.654 52.8136C153.482 53.5176 154.725 53.8695 156.381 53.8695C157.996 53.8695 159.218 53.5176 160.046 52.8136C160.874 52.0682 161.433 51.1365 161.723 50.0184C162.013 48.859 162.179 47.6995 162.22 46.54V33.3096H168.742V58.8387H163.338L162.282 53.9938H162.158C162.075 54.2422 161.868 54.6563 161.537 55.2361C161.205 55.8158 160.708 56.4369 160.046 57.0995C159.425 57.7621 158.597 58.3211 157.561 58.7766C156.526 59.2321 155.242 59.4599 153.71 59.4599Z" fill="white"></path><path d="M127.661 59.522C125.715 59.522 123.831 59.2942 122.008 58.8387C120.186 58.4246 118.53 57.7206 117.039 56.7268C115.59 55.733 114.41 54.47 113.499 52.9378C112.629 51.4057 112.174 49.5422 112.132 47.3475H118.53C118.53 47.5131 118.571 47.8444 118.654 48.3413C118.737 48.7969 118.944 49.3352 119.275 49.9563C119.648 50.5775 120.166 51.1779 120.828 51.7576C121.532 52.3374 122.464 52.8343 123.623 53.2484C124.824 53.6211 126.315 53.8074 128.096 53.8074C129.338 53.8074 130.394 53.6832 131.264 53.4347C132.175 53.1863 132.92 52.855 133.5 52.4409C134.121 52.0268 134.576 51.5713 134.866 51.0744C135.156 50.5361 135.301 50.0184 135.301 49.5215C135.301 48.3621 134.887 47.451 134.059 46.7885C133.272 46.0845 132.195 45.5255 130.829 45.1114C129.504 44.6559 128.034 44.2625 126.419 43.9312C124.845 43.5585 123.251 43.1237 121.636 42.6268C120.062 42.1299 118.613 41.488 117.288 40.7013C115.963 39.8731 114.927 38.8171 114.182 37.5334C113.478 36.2497 113.168 34.614 113.25 32.6264C113.416 30.6801 114.099 29.003 115.3 27.5951C116.501 26.1872 118.178 25.1105 120.331 24.3651C122.485 23.6198 124.99 23.2471 127.847 23.2471C130.332 23.2471 132.63 23.7026 134.742 24.6136C136.895 25.4832 138.614 26.8083 139.897 28.5889C141.223 30.3281 141.885 32.5642 141.885 35.2973H135.736C135.736 34.0136 135.446 32.9783 134.866 32.1916C134.286 31.3634 133.541 30.7422 132.63 30.3281C131.76 29.8726 130.829 29.5827 129.835 29.4585C128.841 29.2929 127.951 29.2101 127.164 29.2101C125.094 29.2101 123.375 29.562 122.008 30.266C120.683 30.9286 120.021 31.9638 120.021 33.3717C119.979 34.5726 120.373 35.525 121.201 36.229C122.029 36.8916 123.127 37.4299 124.493 37.844C125.86 38.2581 127.35 38.6515 128.965 39.0242C130.58 39.3554 132.195 39.7488 133.81 40.2043C135.425 40.6598 136.875 41.281 138.158 42.0678C139.483 42.8546 140.519 43.8898 141.264 45.1735C142.051 46.4572 142.382 48.1343 142.258 50.2048C142.175 52.151 141.492 53.8281 140.208 55.2361C138.924 56.6026 137.206 57.6585 135.053 58.4039C132.941 59.1493 130.477 59.522 127.661 59.522Z" fill="white"></path><path d="M40.3976 27.3405V14.208H27.2651L16.735 24.726V44.0151L11.9399 48.8103V61.9428H25.0724L35.3133 51.7018V32.4248L40.3976 27.3405Z" fill="black"></path><path d="M68.0478 15.5938H54.9152L37.2767 33.2323V52.5214L25.084 64.7141V77.8466H38.2165L55.855 60.2081V40.931L68.0478 28.7383V15.5938Z" fill="black"></path><path d="M81.1929 31.4971H68.0599L57.8191 41.738V61.0271L52.7227 66.1235V79.256H65.8549L76.3849 68.7259V49.4368L81.1929 44.6296V31.4971Z" fill="black"></path></g></svg> 