<?xml version="1.0" encoding="UTF-8"?> <svg xmlns="http://www.w3.org/2000/svg" width="71" height="35" viewBox="0 0 71 35" fill="none"><path d="M53.054 34.9716V28.3832H64.2391V20.102H57.9665V13.4786H64.2455V6.62991H51.5072V34.9676H45.4661V6.63592H38.7276V20.094H30.8862L30.8395 20.1801L44.0474 34.9466C43.9138 34.9626 43.8314 34.9806 43.749 34.9806C40.9344 34.9806 38.1208 34.9876 35.3062 34.9706C35.1103 34.9495 34.9275 34.8534 34.79 34.6993C32.0367 31.6789 29.3283 28.6075 26.5375 25.6291C22.7473 21.5866 18.8966 17.6112 15.0706 13.6087C15.0214 13.5755 14.9671 13.5524 14.9104 13.5406L14.9781 13.4405C15.087 13.4335 15.196 13.4225 15.3049 13.4215C20.9102 13.4215 26.5153 13.4242 32.12 13.4295C32.4477 13.4295 32.5447 13.3404 32.542 12.975C32.5218 10.9858 32.5264 8.99656 32.5237 7.00733C32.5237 6.8852 32.5237 6.76406 32.5237 6.61289H32.1438C26.5732 6.61289 21.0024 6.61122 15.4312 6.60789C15.3192 6.59909 15.2068 6.61661 15.1015 6.65926C14.9962 6.70191 14.9004 6.7687 14.8207 6.85516C12.829 9.01091 10.8336 11.162 8.83456 13.3084C8.80253 13.3424 8.77598 13.3815 8.72289 13.4475L20.4828 26.4731C20.1853 26.8125 19.897 27.1448 19.6059 27.4742C17.4513 29.9109 15.2948 32.347 13.1365 34.7824C13.0381 34.8961 12.9055 34.9672 12.7631 34.9826C10.1087 34.9936 7.45428 34.9906 4.79988 34.9896C4.77791 34.9896 4.75595 34.9796 4.77608 34.9846C7.17663 32.3563 9.59274 29.7134 12.0244 27.0557L0 13.4115C0.602273 12.7688 1.19448 12.1491 1.77387 11.5154C5.20933 7.75517 8.64509 3.99463 12.0812 0.233762C12.2166 0.0961273 12.3925 0.0158956 12.5773 0.00750839C30.2629 -0.0025028 47.9481 -0.0025028 65.6331 0.00750839C65.8093 0.0130727 65.978 0.0868652 66.1091 0.215741C67.4601 1.67337 68.8025 3.14168 70.1365 4.62067C70.2395 4.74612 70.2982 4.90762 70.3021 5.07617C70.3101 13.3594 70.3101 21.6424 70.3021 29.925C70.2969 30.0937 70.2369 30.2548 70.1328 30.3795C68.7989 31.8564 67.4564 33.3248 66.1054 34.7844C65.9849 34.908 65.8283 34.9811 65.6633 34.9906C61.5445 35.0006 57.4256 35.0026 53.3067 34.9966C53.2316 34.9916 53.1538 34.9796 53.054 34.9716Z" fill="white"></path></svg> 