<?xml version="1.0" encoding="UTF-8"?> <svg xmlns="http://www.w3.org/2000/svg" width="192" height="35" viewBox="0 0 192 35" fill="none"><path d="M191.669 17.7443C191.579 18.4712 191.498 19.1994 191.398 19.9252C190.859 23.8491 188.945 27.0029 185.98 29.5641C182.298 32.7443 177.966 34.329 173.165 34.7548C169.479 35.0811 165.829 34.9336 162.248 33.9283C157.915 32.7131 154.248 30.4686 151.445 26.8985C151.298 26.7126 151.141 26.5387 150.965 26.3239C150.321 27.1493 149.702 27.9254 149.099 28.716C147.547 30.7553 145.412 31.8998 143.051 32.7227C140.477 33.6212 137.825 33.9655 135.111 33.9619C128.153 33.9531 121.195 33.9531 114.237 33.9619C113.366 33.9619 113.365 33.9619 113.365 33.0706V1.9405C113.365 1.10796 113.365 1.10796 114.205 1.10796C121.243 1.10796 128.28 1.08396 135.318 1.12595C137.978 1.12437 140.617 1.58969 143.116 2.50072C146.158 3.60581 148.826 5.54676 150.815 8.10053C150.899 8.2073 150.991 8.30687 151.111 8.44842C151.235 8.345 151.353 8.23317 151.462 8.11372C154.031 4.86636 157.358 2.70945 161.232 1.36228C164.01 0.396587 166.884 0.0199099 169.818 0.000716025C173.744 -0.0244759 177.53 0.612515 181.088 2.31837C184.698 4.04822 187.721 6.47145 189.726 10.0067C190.803 11.9057 191.42 14.0314 191.525 16.2123C191.557 16.5254 191.605 16.8365 191.669 17.1445V17.7443ZM170.219 29.3014C170.651 29.2726 171.328 29.233 172.006 29.1814C175.149 28.9415 178.068 28.079 180.651 26.1908C184.951 23.0478 185.973 17.6855 184.243 13.4052C182.891 10.0595 180.214 8.05855 176.945 6.80735C173.826 5.61613 170.577 5.44698 167.278 5.80566C164.339 6.12596 161.64 7.04727 159.267 8.8383C155.503 11.6802 154.163 15.6281 155.1 19.9947C155.768 23.1138 157.698 25.333 160.378 26.9525C163.328 28.7316 166.597 29.2246 170.219 29.3014ZM119.685 6.81814C119.67 7.04367 119.652 7.20202 119.652 7.35917C119.652 14.1362 119.649 20.9129 119.642 27.6891C119.642 28.1857 119.793 28.3417 120.288 28.3381C123.147 28.3189 126.006 28.3381 128.864 28.3249C131.76 28.3069 134.664 28.3789 137.552 28.1905C140.926 27.9722 143.575 26.3191 145.401 23.4568C146.841 21.2064 147.169 18.7136 146.853 16.096C146.478 13.001 145.039 10.5598 142.468 8.79391C140.516 7.45394 138.314 6.83134 135.982 6.80735C130.745 6.75216 125.508 6.78575 120.267 6.78455C120.094 6.78455 119.918 6.80374 119.685 6.81814Z" fill="white"></path><path d="M39.4818 6.8882L23.0183 29.2287C17.5064 21.6519 12.023 14.1179 6.56791 6.62668L6.35918 6.67107C6.32014 6.92348 6.29411 7.17773 6.2812 7.43282C6.2764 15.9693 6.2764 24.5058 6.2812 33.0423C6.2812 33.9348 6.2812 33.936 5.41147 33.936C3.83278 33.936 2.25288 33.9168 0.674185 33.9468C0.139155 33.9564 0 33.7716 0 33.2534C0.0127959 22.7575 0.0127959 12.2617 0 1.76583C0 1.2188 0.181143 1.10004 0.690981 1.10484C3.43011 1.12803 6.16884 1.12803 8.90716 1.10484C9.1022 1.09053 9.29742 1.13006 9.47152 1.21912C9.64562 1.30818 9.79192 1.44335 9.89445 1.60988C14.0747 7.43922 18.265 13.2614 22.4652 19.0763C22.6236 19.2958 22.7975 19.5046 23.0231 19.7961C23.263 19.4734 23.4561 19.2275 23.6385 18.9743C27.8043 13.2058 31.9678 7.43722 36.1289 1.66866C36.4144 1.27158 36.7083 1.10124 37.2085 1.10604C39.9065 1.13123 42.6068 1.11803 45.3048 1.11803C46.1697 1.11803 46.1721 1.11803 46.1721 1.96496C46.1721 8.36252 46.1613 14.7601 46.1841 21.1588C46.1701 22.0748 46.2643 22.9893 46.4648 23.8832C46.971 25.9321 48.4562 27.1437 50.3036 27.9619C51.8979 28.6596 53.6043 29.0659 55.342 29.1615C57.2914 29.2815 59.2515 29.3294 61.2033 29.2815C63.281 29.2299 65.3312 28.9024 67.2854 28.1358C70.4392 26.8966 71.8439 24.8693 71.8439 21.4911C71.8439 15.0132 71.8399 8.53527 71.8319 2.05733C71.8319 1.11083 71.8319 1.11083 72.7712 1.11083H77.2098C78.0723 1.11083 78.0735 1.11083 78.0735 1.95057C78.0735 5.68857 78.0735 9.42699 78.0735 13.1658C78.0735 14.0583 78.0735 14.0583 78.9636 14.0595H102.886C103.711 14.0595 103.719 14.0595 103.719 13.2306C103.719 9.47177 103.719 5.71297 103.719 1.95417C103.719 1.11444 103.719 1.11444 104.585 1.11444C106.125 1.11444 107.666 1.14562 109.204 1.09884C109.832 1.07965 109.965 1.29198 109.964 1.88099C109.947 11.5979 109.943 21.3148 109.952 31.0317C109.952 31.8115 109.938 32.5912 109.952 33.371C109.963 33.7788 109.819 33.9456 109.399 33.942C107.7 33.9288 106.001 33.9216 104.302 33.942C103.737 33.9492 103.709 33.6337 103.711 33.2114C103.716 29.0327 103.716 24.8545 103.711 20.6766C103.711 19.6605 103.711 19.6593 102.696 19.6593H79.0632C78.0567 19.6593 78.0807 19.6593 78.0495 20.6898C78.0028 22.2241 78.0675 23.7824 77.8096 25.2843C77.4041 27.6836 75.919 29.4734 74.0188 30.9141C71.1577 33.0842 67.8528 34.1063 64.3475 34.6258C61.9938 34.9618 59.6132 35.0714 57.2386 34.9533C53.0771 34.7673 49.0248 34.0787 45.3779 31.8822C43.0783 30.4967 41.1709 28.7308 40.3635 26.0809C40.0732 25.1212 39.9677 24.0859 39.9401 23.0818C39.8573 19.946 39.8597 16.8078 39.8201 13.6696C39.7901 11.6123 39.7373 9.55375 39.6918 7.4964C39.6918 7.31046 39.6522 7.12572 39.6306 6.93978L39.4818 6.8882Z" fill="white"></path></svg> 